<svg width="2500" height="2500" viewBox="0 0 2500 2500" fill="none" xmlns="http://www.w3.org/2000/svg">
<g clip-path="url(#clip0)">
<path d="M2152.19 2018.38C1140.2 2500 512.142 2097.04 110.104 1852.29C85.2262 1836.86 42.9423 1855.89 79.6293 1898.03C213.568 2060.44 652.515 2451.88 1225.47 2451.88C1798.82 2451.88 2139.9 2139.03 2182.57 2084.46C2224.95 2030.35 2195.02 2000.5 2152.18 2018.38H2152.19ZM2436.41 1861.41C2409.23 1826.03 2271.16 1819.43 2184.26 1830.1C2097.24 1840.47 1966.6 1893.66 1977.96 1925.59C1983.79 1937.56 1995.68 1932.19 2055.47 1926.82C2115.42 1920.83 2283.36 1899.64 2318.36 1945.39C2353.52 1991.45 2264.79 2210.88 2248.59 2246.27C2232.93 2281.66 2254.57 2290.78 2283.98 2267.21C2312.98 2243.65 2365.49 2182.64 2400.72 2096.29C2435.72 2009.47 2457.06 1888.36 2436.4 1861.41H2436.41Z" fill="#FF9900"/>
<path fill-rule="evenodd" clip-rule="evenodd" d="M1471.74 1035.62C1471.74 1161.99 1474.93 1267.38 1411.06 1379.61C1359.5 1470.86 1277.84 1526.97 1186.6 1526.97C1062.04 1526.97 989.507 1432.07 989.507 1292.02C989.507 1015.54 1237.23 965.365 1471.74 965.365V1035.62ZM1798.84 1826.26C1777.4 1845.41 1746.38 1846.79 1722.2 1834.01C1614.53 1744.59 1595.37 1703.08 1536.06 1617.76C1358.14 1799.34 1232.22 1853.62 1001.37 1853.62C728.552 1853.62 515.95 1685.28 515.95 1348.13C515.95 1084.9 658.756 905.598 861.761 818.011C1037.87 740.444 1283.77 726.76 1471.74 705.324V663.348C1471.74 586.243 1477.66 495.001 1432.5 428.397C1392.8 368.63 1317.07 343.993 1250.46 343.993C1126.83 343.993 1016.42 407.404 989.507 538.795C984.025 568 962.59 596.744 933.394 598.11L618.597 564.356C592.142 558.413 562.946 536.978 570.245 496.367C642.783 114.975 987.218 0 1295.62 0C1453.48 0 1659.68 41.9762 1784.24 161.51C1942.09 308.864 1927.03 505.493 1927.03 719.461V1224.95C1927.03 1376.88 1989.99 1443.48 2049.3 1525.6C2070.28 1554.8 2074.85 1589.94 2048.38 1611.83C1982.23 1667.03 1864.52 1769.68 1799.75 1827.17L1798.83 1826.26" fill="white"/>
<path d="M2152.19 2018.38C1140.2 2500 512.142 2097.04 110.104 1852.29C85.2262 1836.86 42.9423 1855.89 79.6293 1898.03C213.568 2060.44 652.515 2451.88 1225.47 2451.88C1798.82 2451.88 2139.9 2139.03 2182.57 2084.46C2224.95 2030.35 2195.02 2000.5 2152.18 2018.38H2152.19ZM2436.41 1861.41C2409.23 1826.03 2271.16 1819.43 2184.26 1830.1C2097.24 1840.47 1966.6 1893.66 1977.96 1925.59C1983.79 1937.56 1995.68 1932.19 2055.47 1926.82C2115.42 1920.83 2283.36 1899.64 2318.36 1945.39C2353.52 1991.45 2264.79 2210.88 2248.59 2246.27C2232.93 2281.66 2254.57 2290.78 2283.98 2267.21C2312.98 2243.65 2365.49 2182.64 2400.72 2096.29C2435.72 2009.47 2457.06 1888.36 2436.4 1861.41H2436.41Z" fill="#FF9900"/>
<path fill-rule="evenodd" clip-rule="evenodd" d="M1471.74 1035.62C1471.74 1161.99 1474.93 1267.38 1411.06 1379.61C1359.5 1470.86 1277.84 1526.97 1186.6 1526.97C1062.04 1526.97 989.507 1432.07 989.507 1292.02C989.507 1015.54 1237.23 965.365 1471.74 965.365V1035.62ZM1798.84 1826.26C1777.4 1845.41 1746.38 1846.79 1722.2 1834.01C1614.53 1744.59 1595.37 1703.08 1536.06 1617.76C1358.14 1799.34 1232.22 1853.62 1001.37 1853.62C728.552 1853.62 515.95 1685.28 515.95 1348.13C515.95 1084.9 658.756 905.598 861.761 818.011C1037.87 740.444 1283.77 726.76 1471.74 705.324V663.348C1471.74 586.243 1477.66 495.001 1432.5 428.397C1392.8 368.631 1317.07 343.993 1250.46 343.993C1126.83 343.993 1016.42 407.404 989.507 538.795C984.025 568 962.59 596.744 933.394 598.11L618.597 564.356C592.142 558.413 562.946 536.977 570.245 496.367C642.783 114.975 987.218 0 1295.62 0C1453.48 0 1659.68 41.9762 1784.24 161.51C1942.09 308.864 1927.03 505.493 1927.03 719.461V1224.95C1927.03 1376.88 1989.99 1443.48 2049.3 1525.6C2070.28 1554.8 2074.85 1589.94 2048.38 1611.83C1982.23 1667.03 1864.52 1769.68 1799.75 1827.17L1798.83 1826.26" fill="white"/>
</g>
<defs>
<clipPath id="clip0">
<rect width="2500" height="2500" fill="white"/>
</clipPath>
</defs>
</svg>
