<svg width="122" height="122" viewBox="0 0 122 122" fill="none" xmlns="http://www.w3.org/2000/svg">
<path d="M42.8453 95.648L24.6442 105.576C23.5762 106.158 22.6163 106.874 21.7231 107.655C32.3348 116.602 46.0334 122 61.0002 122C75.8566 122 89.4677 116.683 100.049 107.857C99.0734 107.033 98.0146 106.292 96.8406 105.707L77.3505 95.9633C74.8323 94.7042 73.2417 92.1307 73.2417 89.3155V81.6686C73.7895 81.0448 74.4156 80.2437 75.0855 79.2977C77.7419 75.5456 79.7514 71.4183 81.144 67.0885C83.6439 66.3173 85.4854 64.0085 85.4854 61.2647V53.1022C85.4854 51.3067 84.6867 49.7023 83.4459 48.579V36.7795C83.4459 36.7795 85.8698 18.4174 61.0025 18.4174C36.1353 18.4174 38.5591 36.7795 38.5591 36.7795V48.579C37.3161 49.7023 36.5197 51.3067 36.5197 53.1022V61.2647C36.5197 63.4146 37.6499 65.3068 39.3418 66.4002C41.3813 75.2786 46.7216 81.6686 46.7216 81.6686V89.1267C46.7193 91.8429 45.2323 94.3451 42.8453 95.648Z" fill="#E7ECED"/>
<path d="M62.0426 0.00908362C28.3591 -0.566388 0.584561 26.2736 0.00908963 59.9571C-0.317778 79.0559 8.1946 96.221 21.7481 107.636C22.6343 106.863 23.585 106.154 24.6416 105.578L42.8426 95.6502C45.2297 94.3473 46.7167 91.8452 46.7167 89.1243V81.6662C46.7167 81.6662 41.374 75.2762 39.3368 66.3978C37.6472 65.3044 36.5147 63.4146 36.5147 61.2623V53.0998C36.5147 51.3043 37.3135 49.6999 38.5542 48.5766V36.7771C38.5542 36.7771 36.1303 18.415 60.9976 18.415C85.8649 18.415 83.441 36.7771 83.441 36.7771V48.5766C84.684 49.6999 85.4804 51.3043 85.4804 53.0998V61.2623C85.4804 64.0061 83.6389 66.3149 81.1391 67.0861C79.7465 71.4159 77.7369 75.5432 75.0805 79.2953C74.4107 80.2414 73.7846 81.0424 73.2367 81.6662V89.3131C73.2367 92.1283 74.8273 94.7041 77.3456 95.9609L96.8357 105.705C98.005 106.29 99.0616 107.028 100.035 107.85C113.179 96.8886 121.671 80.4992 121.986 62.0426C122.566 28.3591 95.7284 0.584555 62.0426 0.00908362Z" fill="#556080"/>
</svg>
